# xmcd CD database file
#
# Track frame offsets:
#	150
#	16845
#	39378
#	57145
#	76752
#	89473
#	110123
#	125034
#	139244
#	154252
#	196458
#
# Disc length: 4310 seconds
#
# Revision: 0
# Processed by: cddbd v1.5.1PL0 Copyright (c) Steve Scherf et al.
# Submitted via: CDex 1.50
#
DISCID=9110d40b
DTITLE=Kane - Kane
DYEAR=2000
DGENRE=Country
TTITLE0=Sweet Carolina Rain
TTITLE1=Rattlesnake Smile
TTITLE2=Crazy in Love
TTITLE3=Don't Come Home
TTITLE4=The Chase
TTITLE5=Spirit Boy
TTITLE6=One More Shot
TTITLE7=American High
TTITLE8=In the Darkness
TTITLE9=Oklahoma State of Mind
TTITLE10=enhanced data track
EXTD=YEAR: 2000
EXTT0=
EXTT1=
EXTT2=
EXTT3=
EXTT4=
EXTT5=
EXTT6=
EXTT7=
EXTT8=
EXTT9=
EXTT10=
PLAYORDER=
